<?xml version="1.0" encoding="utf-8"?>
<!-- Generator: Adobe Illustrator 17.0.0, SVG Export Plug-In . SVG Version: 6.00 Build 0)  -->
<!DOCTYPE svg PUBLIC "-//W3C//DTD SVG 1.1//EN" "http://www.w3.org/Graphics/SVG/1.1/DTD/svg11.dtd">
<svg version="1.1" id="layers" xmlns="http://www.w3.org/2000/svg" xmlns:xlink="http://www.w3.org/1999/xlink" x="0px" y="0px"
	 width="93.868px" height="108.094px" viewBox="0 0 93.868 108.094" enable-background="new 0 0 93.868 108.094"
	 xml:space="preserve">
<path id="layer-12" fill="#B6D0BA" d="M18.143,44.044l0.63,0.028c-0.001-0.006-0.002-0.012-0.003-0.019l-0.618-0.026L18.143,44.044z
	 M76.856,26.945c-1.061-1.486-2.227-2.889-3.492-4.198c-0.953,1.308-1.98,2.162-2.98,2.703c0.116-0.004,0.228-0.014,0.348-0.014
	C72.541,25.437,74.598,25.949,76.856,26.945z M79.065,51.659l0.706-0.589l-0.003-0.012l-0.711,0.592
	c-0.073-0.088-0.142-0.175-0.205-0.262l-0.397-0.546l0.308-0.6c0.44-0.857,1.797-2.813,4.897-2.896
	c-0.037-1.48-0.155-2.938-0.361-4.37l-0.049,0.113c-2.674,6.128-5.946,7.414-8.22,7.414c-0.698,0-1.386-0.122-2.047-0.362
	l0.311-0.857l-0.011-0.011l-0.317,0.861c-0.121-0.044-0.238-0.091-0.348-0.139l-0.618-0.272l-0.035-0.674
	c-0.011-0.219-0.011-0.489,0.014-0.791c-0.014,0.012-0.03,0.027-0.044,0.038l-0.572-0.709l-0.015,0.004l0.575,0.715
	c-0.101,0.081-0.201,0.158-0.3,0.227l-0.552,0.389l-0.596-0.318c-0.818-0.437-2.284-1.484-2.917-3.584
	c-0.73-2.42-0.127-5.452,1.79-9.011l0.839-1.557l1.022,1.444c2.498,3.528,3.129,6.206,2.95,8.189c1.75-1.501,4.443-2.353,8.033-2.53
	l0.863-0.042c-0.22-1.181-0.496-2.342-0.825-3.481c-1.699,2.055-3.638,2.493-4.953,2.493c-0.291,0-0.585-0.021-0.873-0.063
	l0.131-0.898l-0.013-0.008l-0.135,0.904c-0.128-0.019-0.253-0.041-0.371-0.066l-0.66-0.142l-0.171-0.653
	c-0.235-0.899-0.463-2.691,0.651-4.587c0.786-1.337,2.086-2.461,3.871-3.365c-0.367-0.721-0.753-1.431-1.165-2.124l-0.013,0.01
	c-3.17,2.325-6.064,3.505-8.601,3.505c-2.874,0-4.565-1.512-5.318-2.412l0.691-0.577l-0.005-0.017l-0.698,0.579
	c-0.092-0.111-0.179-0.221-0.258-0.329l-0.397-0.546l0.308-0.601c0.353-0.687,1.167-1.937,2.716-2.792
	c-0.022,0-0.046,0.002-0.067,0.002c-0.354,0-0.712-0.026-1.062-0.077l0.127-0.873l-0.016-0.01l-0.131,0.881
	c-0.156-0.023-0.308-0.05-0.452-0.081l-0.66-0.142l-0.058-0.222c-0.31,0.594-0.657,1.077-0.962,1.441l-0.671-0.563l-0.019,0.009
	l0.676,0.57c-0.109,0.129-0.218,0.253-0.328,0.367l-0.467,0.489l-0.646-0.198c-1.05-0.321-2.9-1.159-4.244-3.186
	c1.059,7.47-2.755,9.679-4.609,10.294l-0.283-0.852l-0.017-0.002l0.284,0.859c-0.134,0.044-0.268,0.085-0.396,0.118l-0.655,0.171
	l-0.446-0.508c-0.174-0.198-0.376-0.456-0.579-0.769c0.607,1.61,1.185,3.297,1.704,5.092c0.058,0.2,0.234,0.289,0.383,0.289
	c0.083,0,0.16-0.027,0.23-0.081c1.954-1.504,5.613-4.74,8.171-9.516l2.032,0.783c-0.101,0.403-2.535,9.94-9,15.591
	c-0.107,0.093-0.149,0.247-0.107,0.39c0.692,2.353,2.055,8.808-0.218,17.926c-0.031,0.125-0.009,0.236,0.066,0.332
	c0.077,0.099,0.196,0.16,0.311,0.16c0.059,0,0.118-0.015,0.179-0.046c2.644-1.341,7.216-4.287,11.137-9.91
	c-0.308,0.349-0.615,0.631-0.885,0.849l-0.558-0.691l-0.019,0.005l0.56,0.7c-0.119,0.095-0.237,0.186-0.354,0.268l-0.553,0.39
	l-0.597-0.319c-0.974-0.521-2.721-1.768-3.475-4.271c-0.88-2.919-0.144-6.595,2.189-10.925l0.839-1.557l1.022,1.444
	c4.228,5.972,4.083,9.935,2.967,12.365c0.392-0.641,0.778-1.302,1.148-2.005l2.061,0.635c-0.017,0.152-0.281,2.321-1.282,5.018
	c0.921-1.504,2.933-3.578,7.02-3.578c1.994,0,4.285,0.512,6.815,1.514c0.082-0.449,0.161-0.9,0.226-1.355
	c-0.016,0-0.033,0.003-0.048,0.003C80.99,53.56,79.658,52.369,79.065,51.659z M65.585,68.447l0.866-0.203l0.004-0.018l-0.874,0.201
	c-0.035-0.15-0.065-0.298-0.089-0.441L65.38,67.32l0.431-0.314c-5.082,2.256-10.526,5.542-11.578,9.291
	c-0.647,2.306-0.989,5.211-1.025,8.173c7.584-1.305,14.374-4.927,19.609-10.122C67.399,73.522,65.961,70.052,65.585,68.447z
	 M18.644,41.389l1.193-0.348c-0.178-0.605-0.297-1.278-0.3-2.037c-0.004-1.305,0.335-2.661,0.973-4.055
	c-0.28,0.38-0.564,0.697-0.817,0.945l-0.614-0.627l-0.019,0.007l0.619,0.634c-0.117,0.114-0.234,0.222-0.349,0.322l-0.513,0.44
	l-0.624-0.26c-1.081-0.451-3.053-1.59-4.104-4.157c-0.037-0.091-0.059-0.19-0.093-0.283c-0.635,1.28-1.198,2.602-1.682,3.961
	C16.315,37.286,17.985,39.482,18.644,41.389z M50.243,30.011c0.183-2.794,1.994-5.713,5.383-8.675l0.886-0.774
	c-0.278-2.159-0.034-4.689,0.73-7.569c-0.776-0.227-1.563-0.429-2.36-0.604c-0.313,7.935-4.832,9.976-7.068,10.496l-0.195-0.84
	l-0.022-0.005l0.195,0.85c-0.175,0.04-0.347,0.075-0.512,0.103l-0.667,0.109l-0.398-0.547c-0.76-1.045-1.964-3.249-1.483-6.27
	c0.254-1.594,0.959-3.185,2.06-4.764c-0.65,0.003-1.296,0.023-1.938,0.059c-0.655,1.658-1.832,2.583-2.624,3.035l-0.449-0.788
	l-0.015,0.001l0.45,0.795c-0.112,0.063-0.223,0.123-0.331,0.175l-0.608,0.295l-0.537-0.41c-0.514-0.392-1.285-1.136-1.806-2.282
	c-3.013,0.669-5.885,1.708-8.57,3.067c5.799,0.598,8.747,2.868,10.244,5.124c-1.065-1.825-2.231-3.65-3.512-5.476l1.65-1.429
	c0.322,0.304,6.731,6.46,11.593,18C50.244,31.179,50.203,30.62,50.243,30.011z M42.069,24.507l-0.847,0.11l-0.008,0.024l0.858-0.108
	c0.025,0.197,0.043,0.389,0.054,0.574l0.042,0.674l-0.583,0.341c-0.98,0.573-2.578,1.256-4.625,1.256c0,0,0,0,0,0
	c-3.023,0-7.473-1.545-12.046-8.534c-1.883,1.412-3.627,3-5.205,4.74c2.657,4.258,2.592,7.411,1.788,9.548
	c0.833-1.307,1.923-2.644,3.285-4.008l1.249-1.252l0.566,1.675c3.556,10.521-1.182,13.756-3.385,14.658l-0.336-0.821l-0.019-0.001
	l0.336,0.829c-0.143,0.058-0.284,0.112-0.42,0.157l-0.391,0.131c1.049,1.902,2.332,4.077,3.697,6.118
	c-0.659-2.983,0.346-6.601,2.99-10.757l0.95-1.492l0.915,1.514c5.744,9.505,1.816,13.687-0.14,15.043l-0.506-0.73L30.269,54.2
	l0.508,0.738c-0.126,0.087-0.252,0.169-0.375,0.243l-0.528,0.318c0.907,0.936,1.785,1.643,2.581,1.975
	c3.826,1.593,8.205,6.256,10.821,9.043c0.244,0.26,0.499,0.532,0.737,0.781c0.025-0.056,0.051-0.113,0.078-0.172
	c6.721-14.873,5.736-30.16-2.907-45.533C41.733,22.702,41.97,23.745,42.069,24.507z M47.753,50.14
	c0.005,0.129,0.006,0.255,0.003,0.375l-0.017,0.677l-0.612,0.289c-0.553,0.26-1.442,0.571-2.545,0.571
	c-2.225,0-5.46-1.246-8.234-7.182l-0.749-1.603l1.768,0.042c9.137,0.214,10.306,4.839,10.385,6.817l-0.908,0.036l-0.006,0.014
	L47.753,50.14z M47.034,37.259l-0.854,0.231l-0.003,0.019l0.862-0.23c0.04,0.15,0.076,0.298,0.104,0.44l0.134,0.663l-0.532,0.417
	c-0.895,0.701-2.393,1.536-4.455,1.536c-3.368,0-6.797-2.211-10.191-6.571l-1.086-1.396l1.733-0.353
	c1.788-0.364,3.449-0.548,4.936-0.548C44.71,31.466,46.563,35.517,47.034,37.259z M32.822,66.447c-0.06-0.032-0.129-0.05-0.197-0.05
	c-0.093,0-0.183,0.032-0.252,0.09c-0.86,0.727-2.232,1.698-4.128,2.493c0.151-0.017,0.296-0.029,0.429-0.036l0.045,0.883
	l0.018,0.007l-0.042-0.891c0.123-0.006,0.244-0.009,0.36-0.009l0.763,0.011l0.295,0.608c0.483,0.997,1.165,3.04,0.301,5.518
	c-0.532,1.525-1.569,2.953-3.07,4.279c4.503,2.844,9.664,4.735,15.206,5.395C42.746,77.942,40.709,70.693,32.822,66.447z
	 M65.327,19.808c0.468-0.796,1.102-1.525,1.864-2.199c-0.365-0.242-0.732-0.48-1.106-0.709l0.007,0.019
	c-0.127,0.05-0.253,0.095-0.374,0.133l-0.643,0.204l-0.472-0.482c-0.27-0.276-0.61-0.684-0.922-1.214
	c-0.247-0.127-0.491-0.258-0.742-0.38c1.247,1.757,1.965,3.35,2.317,4.768C65.283,19.9,65.3,19.854,65.327,19.808z M17.408,70.144
	c0.207,0.279,0.423,0.549,0.638,0.822c0.44,0.084,0.872,0.211,1.295,0.378l-0.321,0.809c0.004,0.005,0.008,0.01,0.013,0.015
	l0.327-0.816c0.143,0.057,0.281,0.116,0.411,0.178l0.61,0.29l0.016,0.675c0.007,0.3-0.009,0.681-0.066,1.108
	c0.423,0.444,0.857,0.878,1.302,1.3c0.947-2.731,2.421-4.22,3.856-5.029c-1.375,0.329-2.927,0.54-4.669,0.54
	C19.71,70.414,18.568,70.316,17.408,70.144z M27.696,61.978c-2.075-1.664-6.758-6.488-8.748-16.971l-0.021,0.196l-0.633,0.237
	c-0.794,0.297-1.661,0.454-2.508,0.454c0,0,0,0-0.001,0c-1.546,0-3.434-0.499-5.306-2.205c-0.174,1.398-0.274,2.82-0.286,4.262
	c0.469-0.031,0.947-0.071,1.387-0.071c7.304,0,9.111,4.162,9.549,5.952l-0.867,0.212l-0.003,0.018l0.875-0.213
	c0.037,0.151,0.069,0.299,0.094,0.442l0.116,0.664l-0.54,0.403c-0.866,0.646-2.31,1.417-4.267,1.417
	c-1.938,0-3.88-0.768-5.807-2.243c0.141,0.82,0.307,1.63,0.501,2.43c9.434,1.367,10.389,6.52,10.337,8.768l-0.889-0.02l-0.008,0.017
	l0.896,0.024c-0.003,0.11-0.01,0.214-0.017,0.319c2.527-0.817,5.018-1.984,6.224-3.548C27.902,62.356,27.868,62.116,27.696,61.978z
	 M15.591,67.454c0.208-0.03,0.432-0.065,0.674-0.105c-0.305-0.086-0.614-0.189-0.929-0.324
	C15.42,67.168,15.504,67.312,15.591,67.454z M74.955,63.669l0.871-0.204l0.004-0.018l-0.879,0.203
	c-0.034-0.146-0.063-0.289-0.086-0.427l-0.108-0.665l0.544-0.397c0.444-0.324,1.05-0.679,1.798-0.941
	c-0.875,0.24-1.726,0.375-2.547,0.375c-2.047,0-3.931-0.786-5.305-2.214l0.641-0.616l-0.006-0.018l-0.647,0.621
	c-0.108-0.112-0.211-0.226-0.305-0.337l-0.365-0.435c-0.563,1.227-1.276,2.496-2.189,3.693c1.452-0.237,2.917-0.356,4.366-0.356
	c0.847,0,1.693,0.042,2.516,0.125l0.187,2.147c-1.07,0.301-2.542,0.776-4.2,1.397c0.292-0.037,0.594-0.064,0.914-0.064
	c2.401,0,4.795,1.16,7.152,3.408c0.23-0.337,0.449-0.682,0.668-1.027C75.923,66.579,75.199,64.714,74.955,63.669z M79.361,60.836
	c0.668,0,1.334,0.116,2,0.298c0.301-0.804,0.57-1.623,0.815-2.453c-1.572,1.107-3.085,1.902-4.53,2.375
	C78.162,60.923,78.732,60.836,79.361,60.836z"/>
<path id="layer-11" fill="#6C9262" d="M28.744,70.042c-0.065,0.201-0.244,0.729-0.544,1.429c-0.199,0.445-0.389,0.987-0.677,1.525
	c-0.276,0.544-0.57,1.124-0.864,1.704c-0.296,0.581-0.63,1.139-0.951,1.657c-0.29,0.482-0.578,0.918-0.824,1.307
	c-0.021,0.032-0.045,0.07-0.065,0.102c-0.529,0.819-0.902,1.35-0.902,1.35s0.287-0.586,0.749-1.443
	c0.022-0.039,0.047-0.086,0.069-0.127c0.219-0.398,0.458-0.849,0.734-1.326c0.308-0.523,0.628-1.087,0.909-1.67
	c0.306-0.571,0.611-1.142,0.899-1.677c0.297-0.53,0.538-1.042,0.76-1.474c0.214-0.436,0.422-0.788,0.536-1.048
	c0.071-0.143,0.12-0.241,0.154-0.309c-1.97,0.099-4.817,1.21-6.202,5.685c-0.478,1.546-0.784,3.487-0.815,5.934
	c1.995-0.959,3.504-1.948,4.666-2.931c4.095-3.467,3.632-6.874,2.748-8.698C29.003,70.03,28.873,70.036,28.744,70.042z
	 M17.862,73.446c-0.366,0.322-0.764,0.737-1.249,1.106c-0.477,0.38-0.985,0.786-1.493,1.191c-0.51,0.406-1.045,0.775-1.553,1.113
	c-0.503,0.344-0.987,0.645-1.394,0.913c-0.821,0.526-1.381,0.854-1.381,0.854s0.505-0.414,1.281-1.002
	c0.391-0.289,0.839-0.637,1.334-0.988c0.498-0.348,1.022-0.728,1.521-1.142c0.515-0.392,1.03-0.785,1.514-1.153
	c0.491-0.359,0.922-0.724,1.303-1.025c0.376-0.307,0.711-0.542,0.923-0.731c0.124-0.1,0.209-0.169,0.268-0.217
	c-2.467-0.979-7.143-0.962-11.207,7.658c10.013-0.2,11.633-4.901,11.572-7.503c-0.109-0.052-0.23-0.1-0.35-0.148
	C18.815,72.521,18.437,72.924,17.862,73.446z M11.802,51.542c0.462,0.152,1.005,0.315,1.578,0.515
	c0.572,0.204,1.186,0.411,1.811,0.578c0.618,0.193,1.236,0.385,1.817,0.566c0.577,0.192,1.124,0.332,1.59,0.469
	c0.468,0.128,0.853,0.266,1.131,0.329c0.148,0.042,0.259,0.073,0.332,0.093c-0.56-2.291-2.788-5.534-9.857-5.054
	c-0.886,0.06-1.831,0.166-2.876,0.353c1.098,1.481,2.154,2.638,3.162,3.537c4.465,3.984,7.955,2.822,9.657,1.552
	c-0.021-0.119-0.051-0.245-0.082-0.371c-0.209-0.026-0.762-0.102-1.506-0.265c-0.474-0.112-1.043-0.196-1.625-0.377
	c-0.586-0.168-1.211-0.348-1.836-0.527c-0.626-0.181-1.237-0.404-1.807-0.621c-0.572-0.211-1.098-0.431-1.552-0.608
	c-0.773-0.312-1.293-0.541-1.435-0.604c-0.024-0.011-0.062-0.027-0.062-0.027s0.025,0.007,0.061,0.017
	C10.476,51.143,11.034,51.3,11.802,51.542z M17.909,44.413c0.013-0.12,0.019-0.25,0.025-0.38c-0.185-0.079-0.69-0.303-1.372-0.675
	c-0.425-0.24-0.947-0.479-1.455-0.816c-0.516-0.325-1.066-0.672-1.616-1.018c-0.551-0.348-1.076-0.733-1.562-1.1
	c-0.27-0.199-0.522-0.394-0.762-0.582c-0.196-0.153-0.385-0.302-0.559-0.435c-0.766-0.603-1.261-1.024-1.261-1.024
	s0.557,0.341,1.367,0.88c0.156,0.107,0.331,0.224,0.507,0.341c0.275,0.185,0.563,0.379,0.865,0.594
	c0.492,0.356,1.024,0.726,1.578,1.06c0.54,0.358,1.08,0.714,1.586,1.051c0.5,0.345,0.987,0.632,1.397,0.894
	c0.414,0.254,0.745,0.493,0.994,0.631c0.136,0.084,0.229,0.142,0.293,0.182c0.09-2.099-0.876-5.293-5.977-7.035
	c-1.344-0.459-2.964-0.821-4.94-1.03c1.109,2.992,2.37,5.022,3.651,6.379C13.411,45.233,16.248,45.034,17.909,44.413z
	 M13.431,68.268c-0.038-0.115-0.087-0.235-0.136-0.355c-0.211,0.005-0.768,0.012-1.528-0.039c-0.486-0.04-1.06-0.039-1.663-0.132
	C9.5,67.662,8.855,67.577,8.21,67.492c-0.646-0.086-1.283-0.216-1.879-0.346c-0.597-0.123-1.149-0.264-1.625-0.371
	c-0.948-0.227-1.573-0.403-1.573-0.403s0.649,0.076,1.61,0.227c0.479,0.082,1.041,0.163,1.637,0.276
	c0.596,0.117,1.234,0.231,1.877,0.303c0.64,0.099,1.28,0.197,1.88,0.291c0.599,0.104,1.161,0.161,1.642,0.228
	c0.482,0.057,0.883,0.136,1.167,0.158c0.153,0.019,0.267,0.033,0.342,0.043C12.283,65.441,9.028,62.085,0,65.136
	C7.089,72.21,11.599,70.117,13.431,68.268z M13.157,61.094c0.406,0.267,0.888,0.566,1.39,0.908c0.499,0.346,1.038,0.706,1.599,1.029
	c0.547,0.347,1.094,0.693,1.607,1.019c0.507,0.335,0.999,0.613,1.414,0.866c0.419,0.246,0.755,0.478,1.006,0.612
	c0.137,0.082,0.231,0.138,0.296,0.176c0.056-2.439-1.34-6.327-8.934-7.577c-0.669-0.11-1.37-0.207-2.139-0.273
	c1.5,3.814,3.218,6.032,4.89,7.275c2.415,1.794,4.735,1.54,6.164,0.972c0.011-0.121,0.014-0.25,0.018-0.38
	c-0.195-0.079-0.709-0.296-1.385-0.648c-0.429-0.231-0.956-0.461-1.471-0.787c-0.522-0.315-1.079-0.651-1.636-0.987
	c-0.558-0.337-1.09-0.711-1.583-1.07c-0.498-0.352-0.948-0.702-1.34-0.99c-0.28-0.212-0.508-0.388-0.706-0.543
	c-0.352-0.275-0.574-0.456-0.574-0.456s0.206,0.122,0.528,0.318C12.531,60.701,12.813,60.875,13.157,61.094z M22.781,43.194
	c-0.005-0.211-0.012-0.768,0.039-1.528c0.04-0.486,0.039-1.06,0.132-1.663c0.08-0.605,0.165-1.249,0.249-1.894
	c0.086-0.646,0.216-1.283,0.346-1.879c0.123-0.597,0.264-1.149,0.371-1.625c0.227-0.948,0.403-1.573,0.403-1.573
	s-0.076,0.649-0.227,1.61c-0.082,0.479-0.163,1.041-0.276,1.637c-0.117,0.596-0.231,1.234-0.303,1.877
	c-0.099,0.64-0.197,1.28-0.291,1.88c-0.104,0.599-0.161,1.161-0.228,1.642c-0.057,0.482-0.136,0.883-0.158,1.167
	c-0.019,0.153-0.033,0.267-0.043,0.342c2.456-1.006,5.812-4.262,2.761-13.289c-7.074,7.089-4.98,11.599-3.132,13.431
	C22.54,43.291,22.661,43.243,22.781,43.194z M18.615,35.397c0.098-0.084,0.197-0.181,0.296-0.277
	c-0.09-0.206-0.321-0.755-0.576-1.527c-0.156-0.496-0.387-1.064-0.538-1.697c-0.164-0.63-0.34-1.301-0.515-1.973
	c-0.175-0.673-0.303-1.355-0.413-1.997c-0.04-0.219-0.073-0.424-0.106-0.632c-0.065-0.401-0.124-0.786-0.18-1.123
	c-0.157-1.029-0.234-1.717-0.234-1.717s0.185,0.672,0.422,1.683c0.059,0.268,0.128,0.56,0.198,0.868
	c0.063,0.275,0.127,0.562,0.188,0.861c0.124,0.636,0.267,1.313,0.455,1.978c0.159,0.673,0.32,1.345,0.468,1.976
	c0.138,0.634,0.307,1.213,0.435,1.715c0.137,0.5,0.22,0.928,0.313,1.217c0.042,0.159,0.074,0.277,0.095,0.356
	c1.684-1.649,3.335-5.097,0.021-10.642c-0.669-1.119-1.517-2.314-2.633-3.607c-1.831,4.354-2.092,7.487-1.595,9.724
	C15.345,33.407,17.184,34.8,18.615,35.397z M29.837,54.241c0.104-0.062,0.211-0.136,0.317-0.209
	c-0.051-0.205-0.178-0.748-0.292-1.501c-0.066-0.483-0.191-1.044-0.23-1.652c-0.053-0.607-0.109-1.255-0.166-1.903
	c-0.055-0.649-0.067-1.3-0.068-1.909c-0.008-0.609,0.009-1.179,0.011-1.667c0.017-0.975,0.054-1.623,0.054-1.623
	s0.065,0.65,0.126,1.621c0.024,0.486,0.066,1.051,0.084,1.658c0.014,0.607,0.041,1.254,0.109,1.898
	c0.042,0.646,0.084,1.292,0.122,1.899c0.027,0.607,0.093,1.168,0.132,1.653c0.048,0.483,0.058,0.892,0.098,1.173
	c0.014,0.154,0.025,0.268,0.032,0.343c2.181-1.513,4.755-5.416-0.174-13.572C24.618,48.9,27.636,52.852,29.837,54.241z
	 M35.09,11.988c0.058-0.106,0.113-0.224,0.169-0.341c-0.141-0.144-0.522-0.545-1.009-1.149c-0.3-0.384-0.691-0.805-1.032-1.311
	c-0.352-0.498-0.727-1.029-1.103-1.56c-0.375-0.533-0.713-1.089-1.021-1.615c-0.315-0.522-0.586-1.023-0.831-1.445
	c-0.477-0.85-0.772-1.429-0.772-1.429s0.384,0.528,0.926,1.337c0.265,0.407,0.587,0.874,0.909,1.389
	c0.319,0.517,0.668,1.063,1.052,1.584c0.362,0.537,0.724,1.073,1.063,1.578c0.33,0.511,0.67,0.962,0.948,1.36
	c0.285,0.393,0.499,0.741,0.676,0.964c0.093,0.13,0.157,0.219,0.201,0.28C36.387,9.226,36.641,4.557,28.272,0
	C27.891,10.008,32.49,11.898,35.09,11.988z M62.833,26.569c-0.114-0.203-0.411-0.752-0.758-1.534
	c-0.213-0.501-0.513-1.069-0.734-1.713c-0.236-0.639-0.487-1.321-0.739-2.002c-0.251-0.683-0.454-1.381-0.635-2.037
	c-0.188-0.654-0.337-1.273-0.478-1.799c-0.269-1.055-0.42-1.765-0.42-1.765s0.262,0.681,0.613,1.71
	c0.168,0.516,0.38,1.113,0.579,1.762c0.194,0.65,0.413,1.34,0.676,2.013c0.235,0.684,0.471,1.368,0.69,2.01
	c0.208,0.646,0.444,1.232,0.629,1.742c0.194,0.507,0.325,0.944,0.451,1.235c0.061,0.163,0.107,0.284,0.137,0.363
	c0.626-0.747,1.219-1.785,1.463-3.104c0.071-0.385,0.111-0.794,0.115-1.226c0.015-2.112-0.879-4.786-3.612-7.988
	c-0.62-0.726-1.329-1.478-2.148-2.257c-0.144,0.465-0.255,0.898-0.37,1.336c-2.537,9.622,1.6,12.757,4.259,13.57
	C62.645,26.787,62.739,26.68,62.833,26.569z M41.405,13.811c0.088-0.043,0.179-0.094,0.27-0.146
	c-0.025-0.16-0.089-0.602-0.127-1.227c-0.008-0.161-0.023-0.339-0.037-0.52c-0.02-0.261-0.037-0.534-0.03-0.825
	c0.001-0.492,0.002-1.017,0.003-1.541c0.002-0.526,0.039-1.049,0.082-1.539c0.037-0.49,0.092-0.947,0.128-1.339
	c0.083-0.782,0.159-1.301,0.159-1.301s0.006,0.527-0.015,1.312c-0.016,0.392-0.022,0.849-0.05,1.339
	c-0.032,0.489-0.057,1.011-0.048,1.533c-0.013,0.522-0.025,1.044-0.037,1.535c-0.012,0.283-0.013,0.549-0.012,0.803
	c0.001,0.186,0.002,0.369,0.001,0.535c0.004,0.392-0.017,0.721-0.005,0.95c0.001,0.129,0.001,0.217,0.001,0.278
	c0.67-0.382,1.398-1.013,1.905-1.983c0.899-1.723,1.085-4.519-1.076-8.936c-3.516,4.577-3.423,7.607-2.477,9.434
	C40.417,12.903,40.928,13.447,41.405,13.811z M52.688,34.105c0.106-0.028,0.218-0.064,0.329-0.101
	c0.007-0.182,0.035-0.682,0.13-1.379c0.066-0.436,0.101-0.956,0.222-1.494c0.109-0.541,0.226-1.119,0.342-1.696
	c0.118-0.578,0.274-1.146,0.429-1.676c0.148-0.532,0.309-1.022,0.436-1.445c0.264-0.843,0.461-1.397,0.461-1.397
	s-0.109,0.581-0.305,1.441c-0.103,0.428-0.211,0.93-0.35,1.462c-0.143,0.531-0.285,1.1-0.39,1.677
	c-0.129,0.572-0.257,1.144-0.379,1.681c-0.131,0.535-0.217,1.039-0.307,1.47c-0.082,0.432-0.178,0.79-0.214,1.045
	c-0.028,0.142-0.047,0.239-0.06,0.307c2.282-0.757,5.515-3.492,3.315-11.837C49.518,28.131,51.132,32.335,52.688,34.105z
	 M65.537,22.253c-0.103,0.484-0.142,0.947-0.135,1.383c0.009,0.543,0.082,1.045,0.194,1.473c0.121,0.026,0.253,0.046,0.384,0.065
	c0.1-0.18,0.381-0.671,0.831-1.326c0.288-0.407,0.587-0.914,0.983-1.396c0.385-0.491,0.796-1.015,1.206-1.539
	c0.338-0.43,0.699-0.824,1.052-1.208c0.078-0.085,0.155-0.184,0.232-0.266c0.42-0.461,0.831-0.875,1.173-1.238
	c0.694-0.717,1.174-1.176,1.174-1.176s-0.405,0.532-1.039,1.3c-0.322,0.38-0.685,0.832-1.096,1.299
	c-0.073,0.082-0.148,0.172-0.223,0.256c-0.344,0.393-0.694,0.804-1.022,1.239c-0.421,0.512-0.84,1.025-1.236,1.505
	c-0.404,0.473-0.747,0.939-1.056,1.328c-0.302,0.395-0.58,0.707-0.747,0.946c-0.1,0.129-0.169,0.218-0.216,0.279
	c1.779,0.26,4.415-0.15,6.583-3.221c1.107-1.568,2.091-3.822,2.772-7.048c-3.424,0.883-5.708,2.067-7.228,3.342
	C66.56,19.562,65.812,20.968,65.537,22.253z M65.225,29.633c0.066,0.09,0.142,0.182,0.218,0.274
	c0.175-0.061,0.658-0.221,1.352-0.391c0.437-0.1,0.941-0.26,1.495-0.346c0.552-0.098,1.142-0.203,1.731-0.308
	c0.591-0.104,1.186-0.168,1.745-0.219c0.558-0.058,1.082-0.088,1.528-0.126c0.895-0.065,1.492-0.084,1.492-0.084
	s-0.59,0.113-1.476,0.248c-0.443,0.062-0.958,0.147-1.513,0.213c-0.555,0.063-1.146,0.14-1.731,0.256
	c-0.589,0.091-1.177,0.183-1.73,0.268c-0.554,0.075-1.063,0.181-1.504,0.257c-0.439,0.084-0.813,0.126-1.067,0.186
	c-0.145,0.027-0.244,0.045-0.312,0.057c1.565,1.875,5.355,3.914,12.425-1.273C69.692,24.411,66.319,27.502,65.225,29.633z
	 M76.245,39.319c0.096,0.021,0.2,0.036,0.303,0.052c0.079-0.142,0.301-0.531,0.657-1.049c0.228-0.322,0.464-0.722,0.777-1.104
	c0.304-0.388,0.629-0.803,0.954-1.217c0.326-0.415,0.679-0.805,1.015-1.166c0.298-0.328,0.586-0.62,0.838-0.885
	c0.029-0.03,0.062-0.064,0.09-0.094c0.549-0.567,0.929-0.93,0.929-0.93s-0.32,0.42-0.822,1.028
	c-0.041,0.049-0.089,0.107-0.132,0.158c-0.222,0.266-0.463,0.56-0.734,0.869c-0.327,0.367-0.669,0.764-0.984,1.183
	c-0.333,0.405-0.664,0.81-0.977,1.19c-0.319,0.374-0.591,0.742-0.835,1.05c-0.239,0.312-0.459,0.559-0.59,0.748
	c-0.079,0.102-0.133,0.172-0.171,0.221c1.424,0.208,3.543-0.12,5.268-2.629c0.85-1.236,1.604-3,2.13-5.491
	c-1.523,0.393-2.758,0.861-3.768,1.375C75.997,34.758,75.815,37.677,76.245,39.319z M77.73,45.525
	c-0.395,0.293-0.81,0.613-1.203,0.96c-0.408,0.33-0.815,0.659-1.198,0.968c-0.388,0.302-0.728,0.608-1.03,0.86
	c-0.297,0.258-0.562,0.455-0.729,0.613c-0.098,0.084-0.165,0.142-0.212,0.182c2.019,0.734,5.801,0.61,8.885-6.459
	c-8.096,0.398-9.295,4.239-9.185,6.342c0.09,0.039,0.188,0.076,0.287,0.112c0.106-0.123,0.402-0.459,0.855-0.894
	c0.288-0.269,0.601-0.614,0.984-0.924c0.377-0.319,0.778-0.659,1.18-0.999c0.403-0.34,0.827-0.651,1.23-0.937
	c0.399-0.29,0.784-0.545,1.106-0.771c0.652-0.444,1.097-0.723,1.097-0.723s-0.399,0.347-1.012,0.841
	C78.476,44.937,78.122,45.229,77.73,45.525z M76.887,57.014c-0.602,0.112-1.241,0.241-1.87,0.413
	c-0.636,0.145-1.271,0.29-1.868,0.425c-0.599,0.125-1.147,0.28-1.622,0.396c-0.473,0.125-0.877,0.2-1.151,0.285
	c-0.15,0.039-0.262,0.068-0.336,0.087c1.778,1.848,5.81,3.679,12.597-1.653c0.288-0.226,0.571-0.441,0.868-0.693
	c-0.225-0.097-0.431-0.169-0.649-0.257c-8.763-3.539-12.083-0.043-13.087,2.309c0.079,0.093,0.169,0.188,0.259,0.282
	c0.186-0.08,0.701-0.292,1.445-0.53c0.47-0.143,1.007-0.357,1.606-0.493c0.596-0.15,1.231-0.31,1.866-0.469
	c0.637-0.159,1.281-0.274,1.888-0.373c0.605-0.106,1.174-0.179,1.659-0.255c0.972-0.139,1.622-0.207,1.622-0.207
	s-0.636,0.169-1.592,0.385C78.043,56.766,77.487,56.898,76.887,57.014z M89.158,59.749c-0.433,0.017-0.893,0.042-1.351,0.098
	c-0.46,0.036-0.92,0.074-1.352,0.107c-0.432,0.026-0.831,0.079-1.176,0.112c-0.344,0.039-0.635,0.051-0.835,0.083
	c-0.113,0.012-0.191,0.021-0.244,0.026c1.101,1.538,3.91,3.33,9.668-0.269c-6.078-3.74-8.861-1.547-9.827,0.036
	c0.045,0.073,0.099,0.149,0.153,0.224c0.138-0.037,0.521-0.133,1.066-0.224c0.343-0.052,0.742-0.147,1.175-0.181
	c0.432-0.044,0.893-0.091,1.354-0.138c0.462-0.047,0.925-0.061,1.36-0.069c0.434-0.013,0.84-0.006,1.188-0.01
	c0.695,0.002,1.157,0.021,1.157,0.021s-0.462,0.054-1.154,0.107C89.993,59.693,89.591,59.729,89.158,59.749z M80.959,62.154
	c-2.221-0.576-3.965,0.129-5.011,0.894c0.019,0.114,0.047,0.236,0.075,0.357c0.2,0.027,0.729,0.105,1.441,0.269
	c0.454,0.112,0.998,0.198,1.554,0.377c0.31,0.092,0.644,0.192,0.97,0.289c0.264,0.079,0.518,0.154,0.785,0.234
	c0.598,0.179,1.182,0.399,1.726,0.613c0.546,0.207,1.048,0.424,1.481,0.597c0.863,0.358,1.428,0.62,1.428,0.62
	s-0.602-0.171-1.489-0.459c-0.441-0.15-0.96-0.312-1.508-0.509c-0.546-0.201-1.133-0.406-1.731-0.572
	c-0.281-0.091-0.548-0.177-0.825-0.266c-0.306-0.099-0.62-0.2-0.911-0.294c-0.551-0.19-1.074-0.329-1.52-0.465
	c-0.448-0.127-0.815-0.263-1.08-0.326c-0.147-0.043-0.248-0.072-0.317-0.093c0.268,1.146,0.967,2.542,2.529,3.567
	c1.814,1.191,4.79,1.877,9.629,1.061C85.475,64.314,83.013,62.687,80.959,62.154z M66.574,67.807c0.02,0.12,0.049,0.247,0.079,0.375
	c0.21,0.028,0.765,0.11,1.513,0.282c0.476,0.117,1.047,0.208,1.631,0.396c0.588,0.175,1.215,0.362,1.843,0.549
	c0.628,0.188,1.241,0.419,1.812,0.643c0.574,0.218,1.1,0.445,1.556,0.627c0.304,0.126,0.556,0.234,0.779,0.331
	c0.441,0.191,0.72,0.319,0.72,0.319s-0.301-0.086-0.786-0.236c-0.224-0.069-0.484-0.151-0.778-0.247
	c-0.463-0.157-1.008-0.327-1.583-0.535c-0.574-0.211-1.189-0.426-1.817-0.6c-0.62-0.2-1.241-0.4-1.823-0.588
	c-0.579-0.199-1.128-0.345-1.596-0.488c-0.47-0.134-0.856-0.276-1.135-0.342c-0.149-0.043-0.26-0.076-0.333-0.097
	c0.464,1.983,2.159,4.681,7.123,5.151c1.547,0.147,3.397,0.088,5.645-0.292c-0.95-1.31-1.868-2.351-2.754-3.208
	C72.032,65.364,68.349,66.51,66.574,67.807z M79.738,50.741c0.049,0.067,0.106,0.136,0.163,0.204
	c0.131-0.045,0.491-0.165,1.009-0.292c0.327-0.075,0.703-0.194,1.117-0.259c0.413-0.073,0.853-0.152,1.293-0.23
	c0.107-0.019,0.209-0.024,0.315-0.039c0.334-0.049,0.671-0.095,0.988-0.124c0.417-0.043,0.808-0.066,1.142-0.094
	c0.668-0.048,1.115-0.063,1.115-0.063s-0.441,0.085-1.102,0.185c-0.331,0.046-0.716,0.11-1.13,0.159
	c-0.329,0.037-0.68,0.092-1.027,0.152c-0.09,0.016-0.176,0.022-0.266,0.039c-0.44,0.068-0.879,0.137-1.292,0.2
	c-0.414,0.056-0.794,0.135-1.123,0.192c-0.328,0.063-0.607,0.094-0.797,0.139c-0.108,0.02-0.182,0.034-0.233,0.043
	c0.638,0.765,1.771,1.562,3.529,1.502c1.462-0.05,3.353-0.694,5.751-2.453c-2.321-1.201-4.122-1.61-5.511-1.572
	C81.409,48.493,80.245,49.754,79.738,50.741z M70.99,47.635c0.08-0.056,0.162-0.122,0.243-0.187
	c-0.051-0.154-0.184-0.58-0.323-1.191c-0.081-0.385-0.214-0.829-0.281-1.316c-0.078-0.486-0.161-1.004-0.244-1.522
	c-0.083-0.519-0.129-1.042-0.166-1.533c-0.042-0.49-0.061-0.949-0.088-1.342c-0.043-0.785-0.052-1.309-0.052-1.309
	s0.091,0.519,0.196,1.297c0.047,0.389,0.115,0.842,0.165,1.329c0.047,0.488,0.106,1.007,0.199,1.521
	c0.071,0.518,0.143,1.035,0.209,1.521c0.058,0.487,0.143,0.935,0.203,1.322c0.067,0.386,0.099,0.714,0.148,0.938
	c0.021,0.127,0.036,0.214,0.046,0.274c1.667-1.345,3.51-4.636-0.933-10.911C66.478,43.642,69.138,46.645,70.99,47.635z
	 M63.448,41.597c-4.73,8.78-1.448,12.486,0.838,13.708c0.099-0.069,0.2-0.15,0.3-0.231c-0.065-0.199-0.23-0.73-0.398-1.469
	c-0.1-0.475-0.265-1.023-0.347-1.624c-0.096-0.599-0.199-1.239-0.302-1.878c-0.102-0.641-0.16-1.286-0.205-1.891
	c-0.052-0.605-0.076-1.172-0.109-1.656c-0.054-0.969-0.064-1.616-0.064-1.616s0.112,0.641,0.242,1.601
	c0.059,0.48,0.141,1.039,0.203,1.641c0.058,0.602,0.131,1.243,0.245,1.877c0.088,0.639,0.177,1.277,0.258,1.877
	c0.071,0.601,0.177,1.154,0.251,1.632c0.083,0.476,0.122,0.881,0.182,1.158c0.025,0.151,0.044,0.264,0.057,0.339
	C66.656,53.404,68.931,49.342,63.448,41.597z M45.507,49.73c-0.357-0.164-0.793-0.323-1.224-0.56
	c-0.436-0.227-0.902-0.47-1.367-0.712c-0.466-0.244-0.913-0.518-1.329-0.781c-0.418-0.258-0.798-0.517-1.129-0.73
	c-0.656-0.434-1.081-0.74-1.081-0.74s0.471,0.237,1.158,0.617c0.341,0.194,0.744,0.411,1.165,0.661
	c0.42,0.253,0.871,0.516,1.339,0.748c0.458,0.252,0.916,0.503,1.345,0.74c0.425,0.245,0.836,0.443,1.182,0.626
	c0.35,0.177,0.632,0.347,0.841,0.442c0.115,0.059,0.193,0.099,0.248,0.127c-0.084-2.14-1.626-5.583-9.312-5.763
	c3.421,7.32,7.418,6.978,9.317,6.083c0.003-0.098-0.001-0.202-0.005-0.307C46.501,50.13,46.079,49.983,45.507,49.73z M46.068,37.935
	c-0.024-0.12-0.058-0.247-0.092-0.374c-0.212-0.021-0.774-0.085-1.531-0.233c-0.483-0.102-1.061-0.174-1.655-0.343
	c-0.598-0.156-1.235-0.323-1.872-0.49c-0.638-0.168-1.263-0.379-1.845-0.586c-0.584-0.2-1.122-0.41-1.586-0.578
	c-0.924-0.348-1.531-0.604-1.531-0.604s0.642,0.159,1.59,0.432c0.471,0.143,1.025,0.295,1.611,0.484
	c0.584,0.193,1.211,0.388,1.848,0.542c0.631,0.18,1.261,0.36,1.853,0.53c0.589,0.181,1.147,0.309,1.622,0.436
	c0.477,0.119,0.87,0.249,1.153,0.306c0.151,0.039,0.264,0.067,0.338,0.086c-0.701-2.596-3.549-6.381-13.008-4.455
	C39.196,41.096,43.993,39.561,46.068,37.935z M41.032,25.174c-0.01-0.162-0.028-0.332-0.05-0.505
	c-0.271-0.065-0.996-0.248-1.966-0.578c-0.614-0.219-1.357-0.416-2.104-0.744c-0.754-0.311-1.558-0.643-2.362-0.975
	c-0.805-0.334-1.584-0.721-2.309-1.095c-0.729-0.365-1.395-0.737-1.972-1.04c-1.147-0.62-1.895-1.063-1.895-1.063
	s0.812,0.322,2.003,0.849c0.591,0.271,1.289,0.569,2.021,0.921c0.73,0.357,1.515,0.724,2.322,1.039
	c0.793,0.349,1.586,0.696,2.33,1.024c0.738,0.341,1.445,0.609,2.044,0.86c0.604,0.24,1.095,0.481,1.454,0.606
	c0.194,0.079,0.337,0.137,0.431,0.175c-0.405-3.138-2.882-7.812-12.413-8.205c-1.165-0.048-2.43-0.036-3.816,0.055
	c0.352,0.607,0.704,1.171,1.055,1.71C32.152,27.954,38.184,26.84,41.032,25.174z M53.368,6.655
	c-2.377,1.718-4.072,3.357-5.255,4.892c-3.647,4.733-2.395,8.463-1.012,10.363c0.143-0.023,0.294-0.058,0.445-0.093
	c0.034-0.25,0.133-0.909,0.339-1.797c0.14-0.566,0.249-1.244,0.474-1.937c0.21-0.698,0.433-1.443,0.657-2.188
	c0.225-0.746,0.5-1.474,0.768-2.152c0.26-0.681,0.531-1.306,0.749-1.847c0.029-0.068,0.055-0.13,0.082-0.195
	c0.405-0.962,0.694-1.585,0.694-1.585s-0.184,0.641-0.495,1.606c-0.027,0.083-0.053,0.164-0.081,0.251
	c-0.188,0.55-0.391,1.197-0.639,1.88c-0.252,0.681-0.509,1.412-0.717,2.158c-0.239,0.737-0.477,1.473-0.703,2.164
	c-0.238,0.687-0.413,1.34-0.583,1.895c-0.16,0.558-0.33,1.016-0.409,1.347c-0.052,0.177-0.091,0.308-0.116,0.396
	c2.511-0.583,5.997-2.813,6.219-9.648C53.837,10.584,53.72,8.766,53.368,6.655z M65.695,15.893
	c-0.002-0.173-0.001-0.649,0.054-1.315c0.041-0.418,0.048-0.912,0.136-1.429c0.076-0.519,0.158-1.073,0.24-1.627
	c0.083-0.555,0.203-1.102,0.323-1.612c0.114-0.512,0.242-0.986,0.341-1.393c0.208-0.813,0.367-1.349,0.367-1.349
	s-0.074,0.557-0.217,1.383c-0.077,0.411-0.154,0.893-0.259,1.405c-0.109,0.511-0.215,1.059-0.286,1.612
	c-0.094,0.549-0.187,1.099-0.275,1.615c-0.098,0.514-0.154,0.997-0.218,1.41c-0.056,0.414-0.129,0.758-0.151,1.002
	c-0.019,0.136-0.032,0.229-0.041,0.294c2.127-0.833,5.059-3.591,2.553-11.401c-6.182,6.008-4.44,9.917-2.874,11.518
	C65.487,15.974,65.591,15.934,65.695,15.893z"/>
<path id="layer-10" fill="#D7ECD7" d="M28.573,70.351c-0.114,0.261-0.322,0.613-0.536,1.048c-0.222,0.432-0.463,0.943-0.76,1.474
	c-0.288,0.535-0.593,1.106-0.899,1.677c-0.282,0.583-0.601,1.147-0.909,1.67c-0.277,0.477-0.516,0.928-0.734,1.326
	c-0.022,0.04-0.047,0.088-0.069,0.127c-0.462,0.857-0.749,1.443-0.749,1.443s0.374-0.531,0.902-1.35
	c0.02-0.032,0.045-0.07,0.065-0.102c0.247-0.39,0.534-0.825,0.824-1.307c0.321-0.518,0.655-1.076,0.951-1.657
	c0.294-0.58,0.588-1.16,0.864-1.704c0.288-0.537,0.478-1.08,0.677-1.525c0.301-0.7,0.48-1.228,0.544-1.429
	c0.018-0.057,0.029-0.091,0.029-0.091s-0.019,0.039-0.046,0.092C28.693,70.11,28.644,70.208,28.573,70.351z M18.667,72.582
	c-0.212,0.19-0.547,0.424-0.923,0.731c-0.382,0.301-0.813,0.666-1.303,1.025c-0.484,0.368-0.999,0.76-1.514,1.153
	c-0.498,0.413-1.023,0.794-1.521,1.142c-0.495,0.351-0.943,0.7-1.334,0.988c-0.776,0.588-1.281,1.002-1.281,1.002
	s0.56-0.328,1.381-0.854c0.407-0.268,0.891-0.569,1.394-0.913c0.507-0.338,1.043-0.707,1.553-1.113
	c0.508-0.406,1.017-0.811,1.493-1.191c0.485-0.369,0.883-0.784,1.249-1.106c0.575-0.522,0.953-0.925,1.088-1.074
	c0.035-0.038,0.064-0.071,0.064-0.071s-0.034,0.027-0.08,0.065C18.876,72.413,18.791,72.482,18.667,72.582z M17.009,53.202
	c-0.58-0.182-1.198-0.374-1.817-0.566c-0.626-0.167-1.239-0.374-1.811-0.578c-0.573-0.2-1.116-0.364-1.578-0.515
	c-0.768-0.241-1.326-0.399-1.498-0.447c-0.036-0.01-0.061-0.017-0.061-0.017s0.038,0.017,0.062,0.027
	c0.141,0.063,0.661,0.292,1.435,0.604c0.454,0.177,0.98,0.397,1.552,0.608c0.57,0.218,1.181,0.44,1.807,0.621
	c0.625,0.179,1.25,0.359,1.836,0.527c0.582,0.181,1.15,0.266,1.625,0.377c0.744,0.163,1.297,0.24,1.506,0.265
	c0.059,0.007,0.095,0.011,0.095,0.011s-0.037-0.01-0.099-0.028c-0.073-0.021-0.184-0.052-0.332-0.093
	c-0.277-0.063-0.662-0.201-1.131-0.329C18.133,53.533,17.586,53.394,17.009,53.202z M11.167,39.842
	c0.24,0.187,0.492,0.383,0.762,0.582c0.486,0.368,1.011,0.752,1.562,1.1c0.55,0.346,1.1,0.693,1.616,1.018
	c0.508,0.336,1.031,0.576,1.455,0.816c0.682,0.371,1.187,0.596,1.372,0.675c0.048,0.02,0.088,0.037,0.088,0.037
	s-0.037-0.023-0.087-0.054c-0.064-0.04-0.157-0.098-0.293-0.182c-0.249-0.138-0.58-0.377-0.994-0.631
	c-0.409-0.262-0.896-0.548-1.397-0.894c-0.506-0.336-1.047-0.693-1.586-1.051c-0.554-0.335-1.086-0.705-1.578-1.06
	c-0.302-0.215-0.59-0.409-0.865-0.594c-0.176-0.118-0.351-0.234-0.507-0.341c-0.81-0.539-1.367-0.88-1.367-0.88
	s0.494,0.421,1.261,1.024C10.782,39.54,10.971,39.689,11.167,39.842z M13.295,67.913c0.059-0.002,0.096-0.003,0.096-0.003
	s-0.038-0.005-0.102-0.013c-0.076-0.009-0.189-0.024-0.342-0.043c-0.284-0.021-0.685-0.1-1.167-0.158
	c-0.481-0.066-1.043-0.123-1.642-0.228c-0.601-0.094-1.24-0.192-1.88-0.291c-0.644-0.072-1.281-0.186-1.877-0.303
	c-0.597-0.113-1.158-0.194-1.637-0.276c-0.961-0.151-1.61-0.227-1.61-0.227s0.625,0.176,1.573,0.403
	c0.475,0.107,1.028,0.248,1.625,0.371c0.596,0.131,1.233,0.26,1.879,0.346c0.645,0.085,1.289,0.17,1.894,0.249
	c0.602,0.093,1.177,0.092,1.663,0.132C12.527,67.925,13.085,67.919,13.295,67.913z M20.172,65.529
	c-0.252-0.133-0.587-0.366-1.006-0.612c-0.414-0.253-0.907-0.531-1.414-0.866c-0.513-0.326-1.06-0.672-1.607-1.019
	c-0.561-0.324-1.099-0.683-1.599-1.029c-0.502-0.342-0.984-0.641-1.39-0.908c-0.343-0.219-0.626-0.394-0.857-0.535
	c-0.321-0.196-0.528-0.318-0.528-0.318s0.222,0.181,0.574,0.456c0.198,0.155,0.426,0.332,0.706,0.543
	c0.393,0.289,0.843,0.638,1.34,0.99c0.493,0.358,1.026,0.732,1.583,1.07c0.557,0.336,1.114,0.672,1.636,0.987
	c0.515,0.326,1.042,0.556,1.471,0.787c0.676,0.351,1.19,0.568,1.385,0.648c0.055,0.022,0.089,0.036,0.089,0.036
	s-0.037-0.022-0.088-0.052C20.403,65.666,20.309,65.61,20.172,65.529z M24.322,33.032c0,0-0.176,0.625-0.403,1.573
	c-0.107,0.475-0.248,1.028-0.371,1.625c-0.131,0.596-0.26,1.233-0.346,1.879c-0.085,0.645-0.17,1.289-0.249,1.894
	c-0.093,0.602-0.092,1.177-0.132,1.663c-0.051,0.76-0.045,1.318-0.039,1.528c0.002,0.059,0.003,0.096,0.003,0.096
	s0.005-0.038,0.013-0.102c0.009-0.076,0.024-0.189,0.043-0.342c0.021-0.284,0.1-0.685,0.158-1.167
	c0.066-0.481,0.123-1.043,0.228-1.642c0.094-0.601,0.192-1.24,0.291-1.88c0.072-0.644,0.186-1.281,0.303-1.877
	c0.113-0.597,0.194-1.158,0.276-1.637C24.245,33.68,24.322,33.032,24.322,33.032z M16.764,27.294
	c0.034,0.208,0.066,0.414,0.106,0.632c0.11,0.641,0.238,1.324,0.413,1.997c0.175,0.671,0.35,1.343,0.515,1.973
	c0.15,0.633,0.382,1.201,0.538,1.697c0.255,0.772,0.485,1.321,0.576,1.527c0.025,0.058,0.042,0.094,0.042,0.094
	s-0.011-0.039-0.028-0.106c-0.021-0.078-0.053-0.197-0.095-0.356c-0.093-0.289-0.176-0.717-0.313-1.217
	c-0.128-0.503-0.297-1.081-0.435-1.715c-0.149-0.632-0.309-1.304-0.468-1.976c-0.187-0.665-0.331-1.341-0.455-1.978
	c-0.06-0.3-0.125-0.586-0.188-0.861c-0.07-0.308-0.139-0.6-0.198-0.868c-0.237-1.011-0.422-1.683-0.422-1.683
	s0.077,0.689,0.234,1.717C16.64,26.508,16.699,26.893,16.764,27.294z M30.136,53.679c-0.04-0.282-0.05-0.69-0.098-1.173
	c-0.039-0.484-0.105-1.045-0.132-1.653c-0.038-0.607-0.081-1.253-0.122-1.899c-0.068-0.644-0.095-1.291-0.109-1.898
	c-0.018-0.607-0.061-1.173-0.084-1.658c-0.06-0.971-0.126-1.621-0.126-1.621s-0.037,0.649-0.054,1.623
	c-0.002,0.487-0.02,1.057-0.011,1.667c0.001,0.61,0.012,1.26,0.068,1.909c0.057,0.648,0.113,1.296,0.166,1.903
	c0.039,0.608,0.164,1.169,0.23,1.652c0.114,0.753,0.241,1.296,0.292,1.501c0.014,0.058,0.024,0.093,0.024,0.093
	s-0.003-0.038-0.01-0.102C30.161,53.947,30.15,53.833,30.136,53.679z M31.095,6.013c0.308,0.526,0.646,1.082,1.021,1.615
	c0.375,0.531,0.751,1.062,1.103,1.56c0.341,0.505,0.731,0.927,1.032,1.311c0.487,0.604,0.868,1.005,1.009,1.149
	c0.036,0.037,0.067,0.068,0.067,0.068s-0.025-0.035-0.06-0.083c-0.044-0.062-0.108-0.15-0.201-0.28
	c-0.177-0.223-0.391-0.571-0.676-0.964c-0.278-0.398-0.618-0.85-0.948-1.36c-0.339-0.505-0.701-1.041-1.063-1.578
	c-0.384-0.522-0.733-1.067-1.052-1.584c-0.322-0.515-0.644-0.982-0.909-1.389c-0.542-0.808-0.926-1.337-0.926-1.337
	s0.295,0.579,0.772,1.429C30.508,4.99,30.78,5.491,31.095,6.013z M62.708,26.192c-0.127-0.292-0.257-0.729-0.451-1.235
	c-0.185-0.51-0.421-1.096-0.629-1.742c-0.22-0.643-0.456-1.326-0.69-2.01c-0.263-0.674-0.482-1.363-0.676-2.013
	c-0.199-0.649-0.411-1.246-0.579-1.762c-0.351-1.029-0.613-1.71-0.613-1.71s0.151,0.71,0.42,1.765
	c0.141,0.526,0.29,1.145,0.478,1.799c0.181,0.657,0.384,1.354,0.635,2.037c0.252,0.681,0.503,1.363,0.739,2.002
	c0.221,0.644,0.521,1.212,0.734,1.713c0.346,0.782,0.644,1.331,0.758,1.534c0.031,0.056,0.051,0.09,0.051,0.09
	s-0.015-0.039-0.039-0.104C62.815,26.475,62.77,26.355,62.708,26.192z M41.547,12.438c0.039,0.625,0.102,1.067,0.127,1.227
	c0.007,0.041,0.012,0.076,0.012,0.076s0-0.035,0-0.083c0-0.061-0.001-0.149-0.001-0.278c-0.012-0.229,0.009-0.558,0.005-0.95
	c0.001-0.166,0-0.348-0.001-0.535c-0.001-0.254,0-0.52,0.012-0.803c0.013-0.49,0.025-1.012,0.037-1.535
	c-0.009-0.522,0.016-1.044,0.048-1.533c0.028-0.489,0.035-0.947,0.05-1.339c0.021-0.785,0.015-1.312,0.015-1.312
	s-0.076,0.519-0.159,1.301c-0.036,0.392-0.091,0.848-0.128,1.339c-0.043,0.49-0.08,1.013-0.082,1.539
	c-0.001,0.525-0.002,1.049-0.003,1.541c-0.007,0.291,0.01,0.564,0.03,0.825C41.524,12.099,41.54,12.278,41.547,12.438z
	 M54.141,27.759c-0.155,0.53-0.311,1.098-0.429,1.676c-0.116,0.577-0.233,1.155-0.342,1.696c-0.121,0.539-0.156,1.058-0.222,1.494
	c-0.095,0.696-0.122,1.196-0.13,1.379c-0.002,0.047-0.003,0.087-0.003,0.087s0.008-0.039,0.018-0.091
	c0.013-0.067,0.032-0.164,0.06-0.307c0.037-0.255,0.133-0.612,0.214-1.045c0.09-0.431,0.176-0.935,0.307-1.47
	c0.122-0.537,0.25-1.109,0.379-1.681c0.105-0.577,0.247-1.146,0.39-1.677c0.139-0.532,0.247-1.034,0.35-1.462
	c0.196-0.859,0.305-1.441,0.305-1.441s-0.198,0.554-0.461,1.397C54.45,26.737,54.289,27.227,54.141,27.759z M65.98,25.175
	c-0.026,0.046-0.047,0.086-0.047,0.086s0.027-0.035,0.064-0.083c0.047-0.061,0.116-0.15,0.216-0.279
	c0.167-0.239,0.445-0.551,0.747-0.946c0.309-0.389,0.652-0.855,1.056-1.328c0.396-0.48,0.815-0.993,1.236-1.505
	c0.328-0.435,0.678-0.847,1.022-1.239c0.074-0.085,0.149-0.174,0.223-0.256c0.41-0.467,0.774-0.919,1.096-1.299
	c0.634-0.768,1.039-1.3,1.039-1.3s-0.481,0.459-1.174,1.176c-0.342,0.363-0.754,0.777-1.173,1.238
	c-0.077,0.082-0.154,0.181-0.232,0.266c-0.353,0.385-0.714,0.779-1.052,1.208c-0.41,0.524-0.821,1.047-1.206,1.539
	c-0.396,0.482-0.694,0.989-0.983,1.396C66.361,24.504,66.08,24.995,65.98,25.175z M68.336,29.418
	c0.553-0.085,1.141-0.177,1.73-0.268c0.585-0.116,1.175-0.193,1.731-0.256c0.555-0.067,1.07-0.152,1.513-0.213
	c0.885-0.135,1.476-0.248,1.476-0.248s-0.597,0.02-1.492,0.084c-0.447,0.038-0.971,0.069-1.528,0.126
	c-0.559,0.051-1.154,0.115-1.745,0.219c-0.589,0.105-1.178,0.21-1.731,0.308c-0.554,0.086-1.058,0.246-1.495,0.346
	c-0.694,0.169-1.177,0.33-1.352,0.391c-0.045,0.016-0.083,0.029-0.083,0.029s0.039-0.007,0.093-0.017
	c0.068-0.013,0.167-0.031,0.312-0.057c0.255-0.06,0.628-0.103,1.067-0.186C67.273,29.599,67.782,29.493,68.336,29.418z
	 M76.732,39.152c0.132-0.189,0.352-0.436,0.59-0.748c0.245-0.308,0.516-0.676,0.835-1.05c0.313-0.38,0.645-0.785,0.977-1.19
	c0.315-0.419,0.657-0.816,0.984-1.183c0.272-0.309,0.512-0.603,0.734-0.869c0.043-0.052,0.091-0.109,0.132-0.158
	c0.501-0.608,0.822-1.028,0.822-1.028s-0.38,0.363-0.929,0.93c-0.028,0.029-0.061,0.064-0.09,0.094
	c-0.253,0.265-0.54,0.558-0.838,0.885c-0.336,0.361-0.689,0.752-1.015,1.166c-0.325,0.414-0.649,0.828-0.954,1.217
	c-0.313,0.381-0.549,0.782-0.777,1.104c-0.355,0.518-0.578,0.906-0.657,1.049c-0.02,0.037-0.037,0.068-0.037,0.068
	s0.021-0.028,0.051-0.066C76.599,39.324,76.653,39.254,76.732,39.152z M73.345,49.103c-0.027,0.032-0.05,0.059-0.05,0.059
	s0.027-0.023,0.063-0.054c0.047-0.04,0.114-0.098,0.212-0.182c0.167-0.158,0.433-0.356,0.729-0.613
	c0.302-0.252,0.642-0.558,1.03-0.86c0.383-0.309,0.79-0.639,1.198-0.968c0.393-0.346,0.809-0.666,1.203-0.96
	c0.392-0.296,0.746-0.588,1.056-0.831c0.614-0.494,1.012-0.841,1.012-0.841s-0.446,0.279-1.097,0.723
	c-0.323,0.227-0.708,0.481-1.106,0.771c-0.402,0.286-0.827,0.597-1.23,0.937c-0.401,0.34-0.803,0.68-1.18,0.999
	c-0.384,0.31-0.696,0.655-0.984,0.924C73.747,48.644,73.451,48.979,73.345,49.103z M69.939,58.646c0,0,0.037-0.01,0.1-0.026
	c0.074-0.019,0.186-0.048,0.336-0.087c0.274-0.085,0.678-0.16,1.151-0.285c0.475-0.116,1.023-0.272,1.622-0.396
	c0.597-0.135,1.233-0.281,1.868-0.425c0.629-0.171,1.268-0.301,1.87-0.413c0.601-0.116,1.156-0.248,1.635-0.349
	c0.956-0.216,1.592-0.385,1.592-0.385s-0.651,0.067-1.622,0.207c-0.485,0.076-1.054,0.15-1.659,0.255
	c-0.606,0.099-1.251,0.214-1.888,0.373c-0.635,0.16-1.27,0.32-1.866,0.469c-0.599,0.136-1.136,0.35-1.606,0.493
	c-0.744,0.238-1.259,0.451-1.445,0.53C69.98,58.629,69.939,58.646,69.939,58.646z M90.335,59.544
	c-0.347,0.004-0.753-0.003-1.188,0.01c-0.434,0.007-0.898,0.022-1.36,0.069c-0.461,0.047-0.922,0.094-1.354,0.138
	c-0.433,0.034-0.831,0.129-1.175,0.181c-0.545,0.091-0.928,0.187-1.066,0.224c-0.036,0.01-0.066,0.018-0.066,0.018
	s0.031-0.003,0.073-0.008c0.054-0.006,0.131-0.014,0.244-0.026c0.2-0.032,0.491-0.043,0.835-0.083
	c0.345-0.033,0.744-0.086,1.176-0.112c0.432-0.034,0.892-0.071,1.352-0.107c0.458-0.056,0.919-0.081,1.351-0.098
	c0.432-0.02,0.835-0.056,1.18-0.078c0.691-0.053,1.154-0.107,1.154-0.107S91.03,59.545,90.335,59.544z M82.497,65.186
	c-0.544-0.214-1.127-0.433-1.726-0.613c-0.267-0.08-0.521-0.155-0.785-0.234c-0.326-0.097-0.66-0.197-0.97-0.289
	c-0.556-0.179-1.1-0.266-1.554-0.377c-0.712-0.164-1.24-0.242-1.441-0.269c-0.056-0.008-0.091-0.012-0.091-0.012
	s0.04,0.012,0.094,0.027c0.07,0.02,0.17,0.05,0.317,0.093c0.265,0.063,0.633,0.199,1.08,0.326c0.445,0.136,0.969,0.275,1.52,0.465
	c0.291,0.094,0.605,0.196,0.911,0.294c0.277,0.089,0.544,0.176,0.825,0.266c0.598,0.166,1.184,0.37,1.731,0.572
	c0.547,0.197,1.067,0.359,1.508,0.509c0.887,0.289,1.489,0.459,1.489,0.459s-0.565-0.261-1.428-0.62
	C83.544,65.61,83.043,65.394,82.497,65.186z M75.007,70.68c-0.455-0.182-0.982-0.41-1.556-0.627
	c-0.571-0.225-1.184-0.455-1.812-0.643c-0.627-0.187-1.254-0.374-1.843-0.549c-0.584-0.188-1.155-0.279-1.631-0.396
	c-0.747-0.172-1.302-0.254-1.513-0.282c-0.059-0.008-0.096-0.012-0.096-0.012s0.037,0.011,0.099,0.029
	c0.074,0.021,0.184,0.054,0.333,0.097c0.279,0.066,0.664,0.209,1.135,0.342c0.468,0.143,1.017,0.289,1.596,0.488
	c0.582,0.189,1.202,0.388,1.823,0.588c0.628,0.174,1.243,0.389,1.817,0.6c0.575,0.207,1.12,0.377,1.583,0.535
	c0.294,0.096,0.554,0.177,0.778,0.247c0.485,0.15,0.786,0.236,0.786,0.236s-0.279-0.128-0.72-0.319
	C75.563,70.915,75.311,70.807,75.007,70.68z M79.901,50.946c-0.034,0.012-0.062,0.022-0.062,0.022s0.029-0.005,0.069-0.013
	c0.051-0.009,0.125-0.023,0.233-0.043c0.19-0.045,0.469-0.077,0.797-0.139c0.329-0.056,0.709-0.136,1.123-0.192
	c0.413-0.063,0.853-0.132,1.292-0.2c0.09-0.018,0.176-0.024,0.266-0.039c0.347-0.06,0.697-0.115,1.027-0.152
	c0.414-0.05,0.799-0.113,1.13-0.159c0.661-0.101,1.102-0.185,1.102-0.185s-0.446,0.015-1.115,0.063
	c-0.334,0.029-0.725,0.051-1.142,0.094c-0.316,0.029-0.654,0.075-0.988,0.124c-0.107,0.016-0.208,0.021-0.315,0.039
	c-0.44,0.078-0.88,0.157-1.293,0.23c-0.414,0.064-0.79,0.184-1.117,0.259C80.392,50.781,80.032,50.9,79.901,50.946z M70.385,43.419
	c0.083,0.518,0.166,1.036,0.244,1.522c0.067,0.487,0.2,0.931,0.281,1.316c0.138,0.611,0.272,1.036,0.323,1.191
	c0.013,0.04,0.024,0.073,0.024,0.073s-0.006-0.035-0.014-0.082c-0.01-0.06-0.025-0.147-0.046-0.274
	c-0.049-0.224-0.081-0.552-0.148-0.938c-0.06-0.387-0.145-0.835-0.203-1.322c-0.066-0.486-0.138-1.003-0.209-1.521
	c-0.093-0.514-0.152-1.033-0.199-1.521c-0.05-0.487-0.117-0.94-0.165-1.329c-0.105-0.778-0.196-1.297-0.196-1.297
	s0.008,0.524,0.052,1.309c0.027,0.392,0.046,0.852,0.088,1.342C70.255,42.377,70.302,42.9,70.385,43.419z M64.542,54.725
	c-0.061-0.277-0.099-0.682-0.182-1.158c-0.074-0.478-0.179-1.031-0.251-1.632c-0.082-0.6-0.17-1.238-0.258-1.877
	c-0.114-0.635-0.187-1.275-0.245-1.877c-0.062-0.602-0.145-1.16-0.203-1.641c-0.13-0.96-0.242-1.601-0.242-1.601
	s0.01,0.647,0.064,1.616c0.033,0.484,0.057,1.051,0.109,1.656c0.045,0.606,0.103,1.25,0.205,1.891
	c0.103,0.639,0.205,1.279,0.302,1.878c0.083,0.601,0.247,1.149,0.347,1.624c0.168,0.74,0.333,1.27,0.398,1.469
	c0.018,0.056,0.03,0.091,0.03,0.091s-0.006-0.037-0.017-0.101C64.586,54.989,64.568,54.877,64.542,54.725z M46.407,50.041
	c-0.209-0.094-0.491-0.265-0.841-0.442c-0.346-0.183-0.757-0.382-1.182-0.626c-0.43-0.237-0.887-0.488-1.345-0.74
	c-0.468-0.232-0.92-0.495-1.339-0.748c-0.421-0.25-0.824-0.467-1.165-0.661c-0.687-0.38-1.158-0.617-1.158-0.617
	s0.425,0.306,1.081,0.74c0.331,0.213,0.711,0.472,1.129,0.73c0.415,0.264,0.863,0.538,1.329,0.781
	c0.465,0.242,0.931,0.485,1.367,0.712c0.431,0.237,0.867,0.395,1.224,0.56c0.573,0.254,0.994,0.4,1.148,0.452
	c0.04,0.013,0.073,0.024,0.073,0.024s-0.031-0.016-0.074-0.038C46.6,50.14,46.521,50.1,46.407,50.041z M42.79,36.985
	c0.594,0.17,1.171,0.242,1.655,0.343c0.757,0.148,1.319,0.211,1.531,0.233c0.06,0.006,0.097,0.009,0.097,0.009
	s-0.037-0.009-0.101-0.026c-0.075-0.019-0.187-0.048-0.338-0.086c-0.283-0.057-0.676-0.187-1.153-0.306
	c-0.475-0.128-1.033-0.256-1.622-0.436c-0.592-0.17-1.223-0.35-1.853-0.53c-0.638-0.154-1.264-0.349-1.848-0.542
	c-0.585-0.189-1.139-0.341-1.611-0.484c-0.947-0.273-1.59-0.432-1.59-0.432s0.606,0.256,1.531,0.604
	c0.464,0.168,1.002,0.379,1.586,0.578c0.582,0.207,1.206,0.417,1.845,0.586C41.555,36.662,42.193,36.829,42.79,36.985z
	 M39.016,24.091c0.97,0.33,1.695,0.514,1.966,0.578c0.074,0.018,0.121,0.028,0.121,0.028s-0.046-0.019-0.124-0.05
	c-0.094-0.038-0.237-0.096-0.431-0.175c-0.359-0.125-0.85-0.365-1.454-0.606c-0.599-0.252-1.306-0.519-2.044-0.86
	c-0.744-0.328-1.537-0.675-2.33-1.024c-0.807-0.315-1.592-0.682-2.322-1.039c-0.732-0.352-1.43-0.65-2.021-0.921
	c-1.191-0.526-2.003-0.849-2.003-0.849s0.748,0.443,1.895,1.063c0.578,0.302,1.243,0.674,1.972,1.04
	c0.725,0.374,1.504,0.761,2.309,1.095c0.804,0.332,1.608,0.664,2.362,0.975C37.659,23.675,38.402,23.872,39.016,24.091z
	 M50.534,11.897c-0.217,0.541-0.489,1.166-0.749,1.847c-0.268,0.678-0.543,1.405-0.768,2.152c-0.223,0.745-0.447,1.49-0.657,2.188
	c-0.225,0.693-0.334,1.372-0.474,1.937c-0.206,0.887-0.305,1.547-0.339,1.797c-0.01,0.07-0.015,0.114-0.015,0.114
	s0.013-0.044,0.034-0.118c0.026-0.087,0.064-0.219,0.116-0.396c0.079-0.331,0.249-0.789,0.409-1.347
	c0.17-0.555,0.345-1.208,0.583-1.895c0.226-0.691,0.464-1.428,0.703-2.164c0.208-0.746,0.465-1.477,0.717-2.158
	c0.248-0.683,0.45-1.33,0.639-1.88c0.029-0.087,0.055-0.168,0.081-0.251c0.312-0.965,0.495-1.606,0.495-1.606
	s-0.289,0.623-0.694,1.585C50.588,11.766,50.562,11.829,50.534,11.897z M65.697,15.976c0,0,0.005-0.037,0.012-0.088
	c0.009-0.065,0.022-0.158,0.041-0.294c0.022-0.244,0.095-0.588,0.151-1.002c0.064-0.413,0.12-0.896,0.218-1.41
	c0.089-0.516,0.182-1.065,0.275-1.615c0.071-0.553,0.177-1.1,0.286-1.612c0.105-0.512,0.182-0.994,0.259-1.405
	c0.143-0.825,0.217-1.383,0.217-1.383s-0.16,0.536-0.367,1.349c-0.099,0.408-0.227,0.881-0.341,1.393
	c-0.12,0.511-0.24,1.058-0.323,1.612c-0.081,0.554-0.163,1.107-0.24,1.627c-0.088,0.517-0.095,1.012-0.136,1.429
	c-0.055,0.666-0.056,1.142-0.054,1.315C65.696,15.938,65.697,15.976,65.697,15.976z"/>
<path id="layer-9" fill="#009852" d="M73.147,63.15c0,0-17.765,4.989-19.971,12.851c-0.692,2.467-1.057,5.533-1.084,8.646
	c-0.015,1.67,0.068,3.35,0.255,4.964h-9.174c0.254-1.529,0.43-3.125,0.485-4.749c0.242-7.166-1.893-14.845-10.317-19.38
	c-0.54-0.29-1.205-0.228-1.674,0.166c-1.765,1.492-6.832,4.843-15.16,3.229c-0.417-0.081-0.834-0.162-1.267-0.269
	c0,0,0.373-0.045,0.995-0.147c2.639-0.432,9.797-1.885,12.406-5.269c0.496-0.642,0.373-1.56-0.259-2.069
	c-2.219-1.78-7.449-7.224-8.895-19.788c0,0,7.278,14.957,12.546,17.152c5.432,2.261,12.531,11.602,12.459,10.627
	c-0.104-1.441,15.159-23.738-6.5-54.628c0.142,0.134,9.257,8.75,13.943,24.971c0.292,1.009,1.505,1.414,2.336,0.773
	c2.167-1.668,5.853-4.984,8.468-9.867c0,0-2.377,9.541-8.657,15.031c-0.432,0.378-0.598,0.977-0.437,1.526
	c0.659,2.239,1.982,8.476-0.23,17.351c-0.308,1.237,0.978,2.266,2.116,1.689c3.544-1.798,9.556-5.866,13.896-14.126
	c0,0-0.691,6.054-4.475,10.472c-0.465,0.541,0.011,1.366,0.711,1.228C67.526,63.165,70.177,62.852,73.147,63.15z"/>
<path id="layer-8" fill="#675432" d="M17.864,90.707c2.871,6.778,13.176,17.386,29.23,17.386S72.49,97.807,76.004,90.707H17.864z
	 M48.38,93.628h6.108l-0.204,0.283l-0.798,1.105l-2.68,3.711l-0.497,0.688l-0.458-0.688l-1.47-2.205V93.628z M33.593,93.306
	l7.614,0.206l1.13,0.031l3.15,0.085v3.215l-1.57,1.884l-0.037,0.045l-0.127-0.045l-2.71-0.957l-1.035-0.365l-7.058-2.491
	L33.593,93.306z M23.307,93.628h7.072l-2.572,5.143L23.307,93.628z M38.737,104.557l-8.358-3.536l1.286-2.893l9.965,2.893
	L38.737,104.557z M42.594,105.2l4.5-5.143l3.857,5.143H42.594z M54.488,104.236l-1.607-1.929l1.337-2.484l0.591-1.097l0.247-0.46
	l0.075-0.138l1.471,0.34l6.887,1.589L54.488,104.236z M67.025,98.128l-9.965-2.893l1.286-1.607h12.537L67.025,98.128z"/>
<path id="layer-7" fill="#AF8660" d="M30.379,93.628l-2.572,5.143l-4.5-5.143H30.379z"/>
<path id="layer-6" fill="#A99267" d="M45.487,93.628v3.215l-1.57,1.884l-0.037,0.045l-0.127-0.045l-2.71-0.957l-1.035-0.365
	l-7.058-2.491l0.643-1.607l7.614,0.206l1.13,0.031L45.487,93.628z"/>
<path id="layer-5" fill="#A6764D" d="M54.488,93.628l-0.204,0.283l-0.798,1.105l-2.68,3.711l-0.497,0.688l-0.458-0.688l-1.47-2.205
	v-2.893H54.488z"/>
<path id="layer-4" fill="#AE8561" d="M67.025,98.128l-9.965-2.893l1.286-1.607h12.537L67.025,98.128z"/>
<path id="layer-3" fill="#AA9165" d="M63.489,100.057l-9.001,4.179l-1.607-1.929l1.337-2.484l0.591-1.097l0.247-0.46l0.075-0.138
	l1.471,0.34L63.489,100.057z"/>
<path id="layer-2" fill="#AF8461" d="M47.095,100.057l3.857,5.143h-8.358L47.095,100.057z"/>
<path id="layer-1" fill="#A6764E" d="M31.665,98.128l9.965,2.893l-2.893,3.536l-8.358-3.536L31.665,98.128z"/>
</svg>
